<mxfile host="app.diagrams.net" modified="2022-12-08T06:25:41.893Z" agent="5.0 (Macintosh; Intel Mac OS X 10_15_7) AppleWebKit/537.36 (KHTML, like Gecko) Chrome/107.0.0.0 Safari/537.36" etag="pTxA824kYzQHcLj7gfuh" version="20.6.0" type="github">
  <diagram id="BBKnpkGjX42z_xoxN_T1" name="Page-1">
    <mxGraphModel dx="1426" dy="695" grid="1" gridSize="10" guides="1" tooltips="1" connect="1" arrows="1" fold="1" page="1" pageScale="1" pageWidth="850" pageHeight="1100" math="0" shadow="0">
      <root>
        <mxCell id="0" />
        <mxCell id="1" parent="0" />
        <mxCell id="uA629iQI35nccJSJ5OOT-23" value="" style="group" vertex="1" connectable="0" parent="1">
          <mxGeometry x="60" y="110" width="770" height="420" as="geometry" />
        </mxCell>
        <mxCell id="-JzeaQpOgpvAFJMyeYhx-44" value="" style="group" parent="uA629iQI35nccJSJ5OOT-23" vertex="1" connectable="0">
          <mxGeometry width="703.8787179487181" height="420" as="geometry" />
        </mxCell>
        <mxCell id="78PukAcrHWfe6RkCPKz8-1" value="" style="rounded=0;whiteSpace=wrap;html=1;fillColor=#dae8fc;strokeColor=#6c8ebf;" parent="-JzeaQpOgpvAFJMyeYhx-44" vertex="1">
          <mxGeometry x="158.69375907111763" y="205.11627906976744" width="26.448959845186252" height="19.53488372093023" as="geometry" />
        </mxCell>
        <mxCell id="78PukAcrHWfe6RkCPKz8-3" value="" style="rounded=0;whiteSpace=wrap;html=1;fillColor=#f8cecc;strokeColor=#b85450;" parent="-JzeaQpOgpvAFJMyeYhx-44" vertex="1">
          <mxGeometry x="119.02031930333814" y="205.11627906976744" width="26.448959845186252" height="19.53488372093023" as="geometry" />
        </mxCell>
        <mxCell id="78PukAcrHWfe6RkCPKz8-5" value="" style="rounded=0;whiteSpace=wrap;html=1;fillColor=#f8cecc;strokeColor=#b85450;" parent="-JzeaQpOgpvAFJMyeYhx-44" vertex="1">
          <mxGeometry x="79.34687953555881" y="205.11627906976744" width="26.448959845186252" height="19.53488372093023" as="geometry" />
        </mxCell>
        <mxCell id="78PukAcrHWfe6RkCPKz8-6" value="" style="rounded=0;whiteSpace=wrap;html=1;fillColor=#dae8fc;strokeColor=#6c8ebf;" parent="-JzeaQpOgpvAFJMyeYhx-44" vertex="1">
          <mxGeometry x="39.673439767779406" y="205.11627906976744" width="26.448959845186252" height="19.53488372093023" as="geometry" />
        </mxCell>
        <mxCell id="78PukAcrHWfe6RkCPKz8-7" value="" style="rounded=0;whiteSpace=wrap;html=1;fillColor=#fff2cc;strokeColor=#d6b656;" parent="-JzeaQpOgpvAFJMyeYhx-44" vertex="1">
          <mxGeometry y="205.11627906976744" width="26.448959845186252" height="19.53488372093023" as="geometry" />
        </mxCell>
        <mxCell id="78PukAcrHWfe6RkCPKz8-15" value="KeyBy" style="rounded=1;whiteSpace=wrap;html=1;" parent="-JzeaQpOgpvAFJMyeYhx-44" vertex="1">
          <mxGeometry x="264.4895984518625" y="185.58139534883728" width="92.57135945815192" height="58.60465116279071" as="geometry" />
        </mxCell>
        <mxCell id="78PukAcrHWfe6RkCPKz8-16" value="" style="shape=singleArrow;whiteSpace=wrap;html=1;" parent="-JzeaQpOgpvAFJMyeYhx-44" vertex="1">
          <mxGeometry x="211.59167876149002" y="205.11627906976744" width="39.673439767779406" height="19.53488372093023" as="geometry" />
        </mxCell>
        <mxCell id="78PukAcrHWfe6RkCPKz8-17" value="" style="rounded=1;whiteSpace=wrap;html=1;" parent="-JzeaQpOgpvAFJMyeYhx-44" vertex="1">
          <mxGeometry x="403.34663763909055" y="117.20930232558142" width="218.2039187227866" height="68.37209302325581" as="geometry" />
        </mxCell>
        <mxCell id="78PukAcrHWfe6RkCPKz8-19" style="edgeStyle=orthogonalEdgeStyle;rounded=0;orthogonalLoop=1;jettySize=auto;html=1;exitX=1;exitY=0;exitDx=0;exitDy=0;entryX=0;entryY=0.5;entryDx=0;entryDy=0;" parent="-JzeaQpOgpvAFJMyeYhx-44" source="78PukAcrHWfe6RkCPKz8-15" target="78PukAcrHWfe6RkCPKz8-17" edge="1">
          <mxGeometry relative="1" as="geometry" />
        </mxCell>
        <mxCell id="78PukAcrHWfe6RkCPKz8-18" value="" style="rounded=1;whiteSpace=wrap;html=1;" parent="-JzeaQpOgpvAFJMyeYhx-44" vertex="1">
          <mxGeometry x="403.34663763909055" y="244.18604651162795" width="218.2039187227866" height="39.06976744186046" as="geometry" />
        </mxCell>
        <mxCell id="78PukAcrHWfe6RkCPKz8-20" style="edgeStyle=orthogonalEdgeStyle;rounded=0;orthogonalLoop=1;jettySize=auto;html=1;exitX=1;exitY=1;exitDx=0;exitDy=0;entryX=0;entryY=0.5;entryDx=0;entryDy=0;" parent="-JzeaQpOgpvAFJMyeYhx-44" source="78PukAcrHWfe6RkCPKz8-15" target="78PukAcrHWfe6RkCPKz8-18" edge="1">
          <mxGeometry relative="1" as="geometry" />
        </mxCell>
        <mxCell id="78PukAcrHWfe6RkCPKz8-21" value="" style="rounded=0;whiteSpace=wrap;html=1;fillColor=#f8cecc;strokeColor=#b85450;" parent="-JzeaQpOgpvAFJMyeYhx-44" vertex="1">
          <mxGeometry x="436.4078374455732" y="126.97674418604653" width="26.448959845186252" height="19.53488372093023" as="geometry" />
        </mxCell>
        <mxCell id="78PukAcrHWfe6RkCPKz8-22" value="" style="rounded=0;whiteSpace=wrap;html=1;fillColor=#f8cecc;strokeColor=#b85450;" parent="-JzeaQpOgpvAFJMyeYhx-44" vertex="1">
          <mxGeometry x="482.69351717464934" y="126.97674418604653" width="26.448959845186252" height="19.53488372093023" as="geometry" />
        </mxCell>
        <mxCell id="78PukAcrHWfe6RkCPKz8-24" value="" style="rounded=0;whiteSpace=wrap;html=1;fillColor=#fff2cc;strokeColor=#d6b656;" parent="-JzeaQpOgpvAFJMyeYhx-44" vertex="1">
          <mxGeometry x="482.69351717464934" y="161.16279069767444" width="26.448959845186252" height="19.53488372093023" as="geometry" />
        </mxCell>
        <mxCell id="-JzeaQpOgpvAFJMyeYhx-1" value="" style="rounded=0;whiteSpace=wrap;html=1;fillColor=#dae8fc;strokeColor=#6c8ebf;" parent="-JzeaQpOgpvAFJMyeYhx-44" vertex="1">
          <mxGeometry x="436.4078374455732" y="253.95348837209306" width="26.448959845186252" height="19.53488372093023" as="geometry" />
        </mxCell>
        <mxCell id="-JzeaQpOgpvAFJMyeYhx-2" value="" style="rounded=0;whiteSpace=wrap;html=1;fillColor=#dae8fc;strokeColor=#6c8ebf;" parent="-JzeaQpOgpvAFJMyeYhx-44" vertex="1">
          <mxGeometry x="482.69351717464934" y="253.95348837209306" width="26.448959845186252" height="19.53488372093023" as="geometry" />
        </mxCell>
        <mxCell id="-JzeaQpOgpvAFJMyeYhx-4" value="Task1" style="text;html=1;align=center;verticalAlign=middle;resizable=0;points=[];autosize=1;strokeColor=none;fillColor=none;" parent="-JzeaQpOgpvAFJMyeYhx-44" vertex="1">
          <mxGeometry x="634.7750362844705" y="136.74418604651163" width="50" height="30" as="geometry" />
        </mxCell>
        <mxCell id="-JzeaQpOgpvAFJMyeYhx-5" value="Task2" style="text;html=1;align=center;verticalAlign=middle;resizable=0;points=[];autosize=1;strokeColor=none;fillColor=none;" parent="-JzeaQpOgpvAFJMyeYhx-44" vertex="1">
          <mxGeometry x="634.7750362844705" y="249.0697674418605" width="50" height="30" as="geometry" />
        </mxCell>
        <mxCell id="-JzeaQpOgpvAFJMyeYhx-9" value="Subsegment1" style="text;html=1;align=center;verticalAlign=middle;resizable=0;points=[];autosize=1;strokeColor=none;fillColor=none;" parent="-JzeaQpOgpvAFJMyeYhx-44" vertex="1">
          <mxGeometry x="502.53023705853894" y="122.09302325581397" width="100" height="30" as="geometry" />
        </mxCell>
        <mxCell id="-JzeaQpOgpvAFJMyeYhx-10" value="Subsegment2" style="text;html=1;align=center;verticalAlign=middle;resizable=0;points=[];autosize=1;strokeColor=none;fillColor=none;" parent="-JzeaQpOgpvAFJMyeYhx-44" vertex="1">
          <mxGeometry x="502.53023705853894" y="156.27906976744185" width="100" height="30" as="geometry" />
        </mxCell>
        <mxCell id="-JzeaQpOgpvAFJMyeYhx-11" value="Subsegment3" style="text;html=1;align=center;verticalAlign=middle;resizable=0;points=[];autosize=1;strokeColor=none;fillColor=none;" parent="-JzeaQpOgpvAFJMyeYhx-44" vertex="1">
          <mxGeometry x="502.53023705853894" y="249.0697674418605" width="100" height="30" as="geometry" />
        </mxCell>
        <mxCell id="-JzeaQpOgpvAFJMyeYhx-41" style="edgeStyle=orthogonalEdgeStyle;rounded=0;orthogonalLoop=1;jettySize=auto;html=1;exitX=0.5;exitY=0;exitDx=0;exitDy=0;exitPerimeter=0;entryX=0.25;entryY=1;entryDx=0;entryDy=0;" parent="-JzeaQpOgpvAFJMyeYhx-44" source="-JzeaQpOgpvAFJMyeYhx-12" target="-JzeaQpOgpvAFJMyeYhx-2" edge="1">
          <mxGeometry relative="1" as="geometry" />
        </mxCell>
        <mxCell id="-JzeaQpOgpvAFJMyeYhx-12" value="" style="shape=cylinder3;whiteSpace=wrap;html=1;boundedLbl=1;backgroundOutline=1;size=15;fillColor=#f5f5f5;strokeColor=#666666;fontColor=#333333;" parent="-JzeaQpOgpvAFJMyeYhx-44" vertex="1">
          <mxGeometry x="482.69351717464934" y="332.09302325581405" width="59.51015965166907" height="78.13953488372093" as="geometry" />
        </mxCell>
        <mxCell id="-JzeaQpOgpvAFJMyeYhx-13" style="edgeStyle=orthogonalEdgeStyle;rounded=0;orthogonalLoop=1;jettySize=auto;html=1;exitX=0.25;exitY=1;exitDx=0;exitDy=0;entryX=0.5;entryY=0;entryDx=0;entryDy=0;entryPerimeter=0;" parent="-JzeaQpOgpvAFJMyeYhx-44" source="-JzeaQpOgpvAFJMyeYhx-2" target="-JzeaQpOgpvAFJMyeYhx-12" edge="1">
          <mxGeometry relative="1" as="geometry" />
        </mxCell>
        <mxCell id="-JzeaQpOgpvAFJMyeYhx-14" value="" style="rounded=0;whiteSpace=wrap;html=1;fillColor=#dae8fc;strokeColor=#6c8ebf;" parent="-JzeaQpOgpvAFJMyeYhx-44" vertex="1">
          <mxGeometry x="509.1424770198356" y="371.16279069767455" width="6.612239961296563" height="29.302325581395355" as="geometry" />
        </mxCell>
        <mxCell id="-JzeaQpOgpvAFJMyeYhx-42" style="edgeStyle=orthogonalEdgeStyle;rounded=0;orthogonalLoop=1;jettySize=auto;html=1;exitX=0;exitY=0;exitDx=0;exitDy=52.5;exitPerimeter=0;entryX=0.5;entryY=0;entryDx=0;entryDy=0;" parent="-JzeaQpOgpvAFJMyeYhx-44" source="-JzeaQpOgpvAFJMyeYhx-18" target="78PukAcrHWfe6RkCPKz8-21" edge="1">
          <mxGeometry relative="1" as="geometry" />
        </mxCell>
        <mxCell id="-JzeaQpOgpvAFJMyeYhx-43" style="edgeStyle=orthogonalEdgeStyle;rounded=0;orthogonalLoop=1;jettySize=auto;html=1;exitX=0.5;exitY=1;exitDx=0;exitDy=0;exitPerimeter=0;entryX=-0.05;entryY=0.333;entryDx=0;entryDy=0;entryPerimeter=0;" parent="-JzeaQpOgpvAFJMyeYhx-44" source="-JzeaQpOgpvAFJMyeYhx-18" target="-JzeaQpOgpvAFJMyeYhx-10" edge="1">
          <mxGeometry relative="1" as="geometry" />
        </mxCell>
        <mxCell id="-JzeaQpOgpvAFJMyeYhx-18" value="" style="shape=cylinder3;whiteSpace=wrap;html=1;boundedLbl=1;backgroundOutline=1;size=15;fillColor=#f5f5f5;strokeColor=#666666;fontColor=#333333;" parent="-JzeaQpOgpvAFJMyeYhx-44" vertex="1">
          <mxGeometry x="466.1629172714078" width="59.51015965166907" height="78.13953488372093" as="geometry" />
        </mxCell>
        <mxCell id="-JzeaQpOgpvAFJMyeYhx-23" style="edgeStyle=orthogonalEdgeStyle;rounded=0;orthogonalLoop=1;jettySize=auto;html=1;exitX=0.5;exitY=0;exitDx=0;exitDy=0;entryX=0;entryY=0;entryDx=0;entryDy=52.5;entryPerimeter=0;" parent="-JzeaQpOgpvAFJMyeYhx-44" source="78PukAcrHWfe6RkCPKz8-21" target="-JzeaQpOgpvAFJMyeYhx-18" edge="1">
          <mxGeometry relative="1" as="geometry" />
        </mxCell>
        <mxCell id="-JzeaQpOgpvAFJMyeYhx-24" style="edgeStyle=orthogonalEdgeStyle;rounded=0;orthogonalLoop=1;jettySize=auto;html=1;exitX=0.5;exitY=0;exitDx=0;exitDy=0;entryX=0.5;entryY=1;entryDx=0;entryDy=0;entryPerimeter=0;" parent="-JzeaQpOgpvAFJMyeYhx-44" source="78PukAcrHWfe6RkCPKz8-24" target="-JzeaQpOgpvAFJMyeYhx-18" edge="1">
          <mxGeometry relative="1" as="geometry" />
        </mxCell>
        <mxCell id="-JzeaQpOgpvAFJMyeYhx-19" value="" style="rounded=0;whiteSpace=wrap;html=1;fillColor=#f8cecc;strokeColor=#b85450;" parent="-JzeaQpOgpvAFJMyeYhx-44" vertex="1">
          <mxGeometry x="480.0486211901307" y="39.06976744186046" width="6.612239961296563" height="29.302325581395355" as="geometry" />
        </mxCell>
        <mxCell id="-JzeaQpOgpvAFJMyeYhx-20" value="" style="rounded=0;whiteSpace=wrap;html=1;fillColor=#ffe6cc;strokeColor=#d79b00;" parent="-JzeaQpOgpvAFJMyeYhx-44" vertex="1">
          <mxGeometry x="502.53023705853894" y="39.06976744186046" width="6.612239961296563" height="29.302325581395355" as="geometry" />
        </mxCell>
        <mxCell id="-JzeaQpOgpvAFJMyeYhx-25" value="Keyed state" style="text;html=1;align=center;verticalAlign=middle;resizable=0;points=[];autosize=1;strokeColor=none;fillColor=none;" parent="-JzeaQpOgpvAFJMyeYhx-44" vertex="1">
          <mxGeometry x="515.75713836478" y="9.546786469344607" width="90" height="30" as="geometry" />
        </mxCell>
        <mxCell id="-JzeaQpOgpvAFJMyeYhx-26" value="Keyed state" style="text;html=1;align=center;verticalAlign=middle;resizable=0;points=[];autosize=1;strokeColor=none;fillColor=none;" parent="-JzeaQpOgpvAFJMyeYhx-44" vertex="1">
          <mxGeometry x="532.7032849540395" y="341.19117336152215" width="90" height="30" as="geometry" />
        </mxCell>
        <mxCell id="-JzeaQpOgpvAFJMyeYhx-31" value="" style="whiteSpace=wrap;html=1;fillColor=#dae8fc;strokeColor=#6c8ebf;rounded=0;" parent="-JzeaQpOgpvAFJMyeYhx-44" vertex="1">
          <mxGeometry x="330.6119980648282" y="356.51162790697674" width="119.02031930333814" height="58.60465116279071" as="geometry" />
        </mxCell>
        <mxCell id="-JzeaQpOgpvAFJMyeYhx-32" value="" style="edgeStyle=orthogonalEdgeStyle;rounded=0;orthogonalLoop=1;jettySize=auto;html=1;" parent="-JzeaQpOgpvAFJMyeYhx-44" source="-JzeaQpOgpvAFJMyeYhx-14" target="-JzeaQpOgpvAFJMyeYhx-31" edge="1">
          <mxGeometry relative="1" as="geometry" />
        </mxCell>
        <mxCell id="-JzeaQpOgpvAFJMyeYhx-34" value="ListState" style="rounded=1;whiteSpace=wrap;html=1;" parent="-JzeaQpOgpvAFJMyeYhx-44" vertex="1">
          <mxGeometry x="343.83647798742146" y="361.3953488372094" width="92.57135945815192" height="19.53488372093023" as="geometry" />
        </mxCell>
        <mxCell id="-JzeaQpOgpvAFJMyeYhx-36" value="ValueState" style="rounded=1;whiteSpace=wrap;html=1;" parent="-JzeaQpOgpvAFJMyeYhx-44" vertex="1">
          <mxGeometry x="343.83647798742146" y="390.6976744186047" width="92.57135945815192" height="19.53488372093023" as="geometry" />
        </mxCell>
        <mxCell id="-JzeaQpOgpvAFJMyeYhx-38" style="edgeStyle=orthogonalEdgeStyle;rounded=0;orthogonalLoop=1;jettySize=auto;html=1;" parent="-JzeaQpOgpvAFJMyeYhx-44" source="-JzeaQpOgpvAFJMyeYhx-37" target="-JzeaQpOgpvAFJMyeYhx-34" edge="1">
          <mxGeometry relative="1" as="geometry" />
        </mxCell>
        <mxCell id="-JzeaQpOgpvAFJMyeYhx-37" value="every vehicle latest msg" style="text;html=1;align=center;verticalAlign=middle;resizable=0;points=[];autosize=1;strokeColor=none;fillColor=none;" parent="-JzeaQpOgpvAFJMyeYhx-44" vertex="1">
          <mxGeometry x="115.80865989356552" y="312.5581395348837" width="150" height="30" as="geometry" />
        </mxCell>
        <mxCell id="-JzeaQpOgpvAFJMyeYhx-40" style="edgeStyle=orthogonalEdgeStyle;rounded=0;orthogonalLoop=1;jettySize=auto;html=1;entryX=0;entryY=0.75;entryDx=0;entryDy=0;" parent="-JzeaQpOgpvAFJMyeYhx-44" source="-JzeaQpOgpvAFJMyeYhx-39" target="-JzeaQpOgpvAFJMyeYhx-36" edge="1">
          <mxGeometry relative="1" as="geometry" />
        </mxCell>
        <mxCell id="-JzeaQpOgpvAFJMyeYhx-39" value="last MRM event aggregation result" style="text;html=1;align=center;verticalAlign=middle;resizable=0;points=[];autosize=1;strokeColor=none;fillColor=none;" parent="-JzeaQpOgpvAFJMyeYhx-44" vertex="1">
          <mxGeometry x="36.27285921625544" y="390.6976744186047" width="210" height="30" as="geometry" />
        </mxCell>
        <mxCell id="uA629iQI35nccJSJ5OOT-10" value="" style="group" vertex="1" connectable="0" parent="-JzeaQpOgpvAFJMyeYhx-44">
          <mxGeometry x="320.8333333333333" y="28.63636363636365" width="39.48717948717949" height="58.70454545454546" as="geometry" />
        </mxCell>
        <mxCell id="uA629iQI35nccJSJ5OOT-8" value="" style="html=1;verticalLabelPosition=bottom;align=center;labelBackgroundColor=#ffffff;verticalAlign=top;strokeWidth=2;strokeColor=#0080F0;shadow=0;dashed=0;shape=mxgraph.ios7.icons.gauge;" vertex="1" parent="uA629iQI35nccJSJ5OOT-10">
          <mxGeometry x="3.7512820512820078" width="31.9846153846154" height="30.068181818181817" as="geometry" />
        </mxCell>
        <mxCell id="uA629iQI35nccJSJ5OOT-9" value="TTL" style="text;html=1;align=center;verticalAlign=middle;resizable=0;points=[];autosize=1;strokeColor=none;fillColor=none;" vertex="1" parent="uA629iQI35nccJSJ5OOT-10">
          <mxGeometry y="30.068181818181817" width="40" height="30" as="geometry" />
        </mxCell>
        <mxCell id="uA629iQI35nccJSJ5OOT-11" value="" style="group" vertex="1" connectable="0" parent="-JzeaQpOgpvAFJMyeYhx-44">
          <mxGeometry x="246.79487179487188" y="343.6363636363637" width="39.48717948717949" height="58.70454545454546" as="geometry" />
        </mxCell>
        <mxCell id="uA629iQI35nccJSJ5OOT-12" value="" style="html=1;verticalLabelPosition=bottom;align=center;labelBackgroundColor=#ffffff;verticalAlign=top;strokeWidth=2;strokeColor=#0080F0;shadow=0;dashed=0;shape=mxgraph.ios7.icons.gauge;" vertex="1" parent="uA629iQI35nccJSJ5OOT-11">
          <mxGeometry x="3.7512820512820078" width="31.9846153846154" height="30.068181818181817" as="geometry" />
        </mxCell>
        <mxCell id="uA629iQI35nccJSJ5OOT-13" value="TTL" style="text;html=1;align=center;verticalAlign=middle;resizable=0;points=[];autosize=1;strokeColor=none;fillColor=none;" vertex="1" parent="uA629iQI35nccJSJ5OOT-11">
          <mxGeometry y="30.068181818181817" width="40" height="30" as="geometry" />
        </mxCell>
        <mxCell id="uA629iQI35nccJSJ5OOT-14" style="edgeStyle=orthogonalEdgeStyle;rounded=0;orthogonalLoop=1;jettySize=auto;html=1;entryX=0;entryY=0.5;entryDx=0;entryDy=0;" edge="1" parent="-JzeaQpOgpvAFJMyeYhx-44" source="uA629iQI35nccJSJ5OOT-12" target="-JzeaQpOgpvAFJMyeYhx-31">
          <mxGeometry relative="1" as="geometry" />
        </mxCell>
        <mxCell id="uA629iQI35nccJSJ5OOT-15" style="edgeStyle=orthogonalEdgeStyle;rounded=0;orthogonalLoop=1;jettySize=auto;html=1;" edge="1" parent="-JzeaQpOgpvAFJMyeYhx-44" source="uA629iQI35nccJSJ5OOT-8" target="-JzeaQpOgpvAFJMyeYhx-18">
          <mxGeometry relative="1" as="geometry" />
        </mxCell>
        <mxCell id="uA629iQI35nccJSJ5OOT-18" value="Aggregation" style="text;html=1;align=center;verticalAlign=middle;resizable=0;points=[];autosize=1;strokeColor=none;fillColor=none;" vertex="1" parent="-JzeaQpOgpvAFJMyeYhx-44">
          <mxGeometry x="621.547948717949" y="19.090909090909097" width="90" height="30" as="geometry" />
        </mxCell>
        <mxCell id="uA629iQI35nccJSJ5OOT-19" value="Store result" style="text;html=1;align=center;verticalAlign=middle;resizable=0;points=[];autosize=1;strokeColor=none;fillColor=none;" vertex="1" parent="-JzeaQpOgpvAFJMyeYhx-44">
          <mxGeometry x="601.2515384615385" y="58.70454545454546" width="80" height="30" as="geometry" />
        </mxCell>
        <mxCell id="uA629iQI35nccJSJ5OOT-4" value="" style="group" vertex="1" connectable="0" parent="uA629iQI35nccJSJ5OOT-23">
          <mxGeometry x="720.6410256410257" y="38.18181818181813" width="49.35897435897437" height="66.81818181818187" as="geometry" />
        </mxCell>
        <mxCell id="uA629iQI35nccJSJ5OOT-3" value="Timer" style="text;html=1;align=center;verticalAlign=middle;resizable=0;points=[];autosize=1;strokeColor=none;fillColor=none;" vertex="1" parent="uA629iQI35nccJSJ5OOT-4">
          <mxGeometry y="38.181818181818244" width="50" height="30" as="geometry" />
        </mxCell>
        <mxCell id="uA629iQI35nccJSJ5OOT-2" value="" style="points=[[0.145,0.145,0],[0.5,0,0],[0.855,0.145,0],[1,0.5,0],[0.855,0.855,0],[0.5,1,0],[0.145,0.855,0],[0,0.5,0]];shape=mxgraph.bpmn.event;html=1;verticalLabelPosition=bottom;labelBackgroundColor=#ffffff;verticalAlign=top;align=center;perimeter=ellipsePerimeter;outlineConnect=0;aspect=fixed;outline=standard;symbol=timer;" vertex="1" parent="uA629iQI35nccJSJ5OOT-4">
          <mxGeometry x="6.231794871794929" width="25.54441657029267" height="25.54441657029267" as="geometry" />
        </mxCell>
        <mxCell id="uA629iQI35nccJSJ5OOT-5" value="" style="group" vertex="1" connectable="0" parent="uA629iQI35nccJSJ5OOT-23">
          <mxGeometry x="681.1538461538463" y="353.1818181818182" width="49.35897435897437" height="66.81818181818187" as="geometry" />
        </mxCell>
        <mxCell id="uA629iQI35nccJSJ5OOT-6" value="Timer" style="text;html=1;align=center;verticalAlign=middle;resizable=0;points=[];autosize=1;strokeColor=none;fillColor=none;" vertex="1" parent="uA629iQI35nccJSJ5OOT-5">
          <mxGeometry y="38.181818181818244" width="50" height="30" as="geometry" />
        </mxCell>
        <mxCell id="uA629iQI35nccJSJ5OOT-7" value="" style="points=[[0.145,0.145,0],[0.5,0,0],[0.855,0.145,0],[1,0.5,0],[0.855,0.855,0],[0.5,1,0],[0.145,0.855,0],[0,0.5,0]];shape=mxgraph.bpmn.event;html=1;verticalLabelPosition=bottom;labelBackgroundColor=#ffffff;verticalAlign=top;align=center;perimeter=ellipsePerimeter;outlineConnect=0;aspect=fixed;outline=standard;symbol=timer;" vertex="1" parent="uA629iQI35nccJSJ5OOT-5">
          <mxGeometry x="6.231794871794929" width="25.54441657029267" height="25.54441657029267" as="geometry" />
        </mxCell>
        <mxCell id="uA629iQI35nccJSJ5OOT-16" style="edgeStyle=orthogonalEdgeStyle;rounded=0;orthogonalLoop=1;jettySize=auto;html=1;entryX=1;entryY=1;entryDx=0;entryDy=-15;entryPerimeter=0;" edge="1" parent="uA629iQI35nccJSJ5OOT-23" source="uA629iQI35nccJSJ5OOT-2" target="-JzeaQpOgpvAFJMyeYhx-18">
          <mxGeometry relative="1" as="geometry" />
        </mxCell>
        <mxCell id="uA629iQI35nccJSJ5OOT-17" style="edgeStyle=orthogonalEdgeStyle;rounded=0;orthogonalLoop=1;jettySize=auto;html=1;entryX=0.072;entryY=0.321;entryDx=0;entryDy=0;entryPerimeter=0;" edge="1" parent="uA629iQI35nccJSJ5OOT-23" source="-JzeaQpOgpvAFJMyeYhx-18" target="uA629iQI35nccJSJ5OOT-2">
          <mxGeometry relative="1" as="geometry" />
        </mxCell>
        <mxCell id="uA629iQI35nccJSJ5OOT-20" style="edgeStyle=orthogonalEdgeStyle;rounded=0;orthogonalLoop=1;jettySize=auto;html=1;entryX=0;entryY=0.5;entryDx=0;entryDy=0;entryPerimeter=0;" edge="1" parent="uA629iQI35nccJSJ5OOT-23" source="-JzeaQpOgpvAFJMyeYhx-12" target="uA629iQI35nccJSJ5OOT-7">
          <mxGeometry relative="1" as="geometry" />
        </mxCell>
        <mxCell id="uA629iQI35nccJSJ5OOT-22" style="edgeStyle=orthogonalEdgeStyle;rounded=0;orthogonalLoop=1;jettySize=auto;html=1;entryX=1;entryY=1;entryDx=0;entryDy=-15;entryPerimeter=0;exitX=0.145;exitY=0.855;exitDx=0;exitDy=0;exitPerimeter=0;" edge="1" parent="uA629iQI35nccJSJ5OOT-23" source="uA629iQI35nccJSJ5OOT-7" target="-JzeaQpOgpvAFJMyeYhx-12">
          <mxGeometry relative="1" as="geometry" />
        </mxCell>
      </root>
    </mxGraphModel>
  </diagram>
</mxfile>
